HIERARCHY
ROOT Hips
{
	OFFSET -0.066283 88.859909 3.106752
	CHANNELS 6 Xposition Yposition Zposition Zrotation Yrotation Xrotation 
	JOINT Spine
	{
		OFFSET -0.000000 8.814246 -2.080107
		CHANNELS 3 Zrotation Yrotation Xrotation
		JOINT Spine1
		{
			OFFSET -0.000000 8.844141 0.000000
			CHANNELS 3 Zrotation Yrotation Xrotation
			JOINT Spine2
			{
				OFFSET 0.000000 11.682268 0.000000
				CHANNELS 3 Zrotation Yrotation Xrotation
				JOINT Spine3
				{
					OFFSET -0.000000 11.746700 0.000000
					CHANNELS 3 Zrotation Yrotation Xrotation
					JOINT Neck
					{
						OFFSET -0.000000 17.658264 0.000000
						CHANNELS 3 Zrotation Yrotation Xrotation
						JOINT Neck1
						{
							OFFSET 0.000000 5.101515 -0.000000
							CHANNELS 3 Zrotation Yrotation Xrotation
							JOINT Head
							{
								OFFSET -0.000000 5.101515 -0.000000
								CHANNELS 3 Zrotation Yrotation Xrotation
								JOINT HeadEnd
								{
									OFFSET 0.000000 11.655085 -0.000000
									CHANNELS 3 Zrotation Yrotation Xrotation
									End Site
									{
										OFFSET 0.000000 0.000000 0.000000
									}
								}
							}
						}
					}
					JOINT RightShoulder
					{
						OFFSET -2.625389 11.175210 -0.000000
						CHANNELS 3 Zrotation Yrotation Xrotation
						JOINT RightArm
						{
							OFFSET 0.000000 10.434715 -0.000000
							CHANNELS 3 Zrotation Yrotation Xrotation
							JOINT RightForeArm
							{
								OFFSET -0.000000 29.628420 0.000000
								CHANNELS 3 Zrotation Yrotation Xrotation
								JOINT RightHand
								{
									OFFSET -0.000000 22.857611 0.000000
									CHANNELS 3 Zrotation Yrotation Xrotation
									JOINT RightHandThumb1
									{
										OFFSET -2.867323 3.959563 2.944291
										CHANNELS 3 Zrotation Yrotation Xrotation
										JOINT RightHandThumb2
										{
											OFFSET -0.000000 3.350399 0.000000
											CHANNELS 3 Zrotation Yrotation Xrotation
											JOINT RightHandThumb3
											{
												OFFSET -0.000000 3.756509 -0.000000
												CHANNELS 3 Zrotation Yrotation Xrotation
												JOINT RightHandThumb4
												{
													OFFSET -0.000000 3.147345 0.000000
													CHANNELS 3 Zrotation Yrotation Xrotation
													End Site
													{
														OFFSET 0.000000 0.000000 0.000000
													}
												}
											}
										}
									}
									JOINT RightHandIndex1
									{
										OFFSET -0.086752 10.030893 2.345280
										CHANNELS 3 Zrotation Yrotation Xrotation
										JOINT RightHandIndex2
										{
											OFFSET 0.000000 4.061090 -0.000000
											CHANNELS 3 Zrotation Yrotation Xrotation
											JOINT RightHandIndex3
											{
												OFFSET 0.000000 3.248873 -0.000000
												CHANNELS 3 Zrotation Yrotation Xrotation
												JOINT RightHandIndex4
												{
													OFFSET 0.000000 2.639709 0.000000
													CHANNELS 3 Zrotation Yrotation Xrotation
													End Site
													{
														OFFSET 0.000000 0.000000 0.000000
													}
												}
											}
										}
									}
									JOINT RightHandMiddle1
									{
										OFFSET 0.104102 9.502952 0.006768
										CHANNELS 3 Zrotation Yrotation Xrotation
										JOINT RightHandMiddle2
										{
											OFFSET 0.000000 4.568727 0.000000
											CHANNELS 3 Zrotation Yrotation Xrotation
											JOINT RightHandMiddle3
											{
												OFFSET 0.000000 3.654981 -0.000000
												CHANNELS 3 Zrotation Yrotation Xrotation
												JOINT RightHandMiddle4
												{
													OFFSET -0.000000 2.741236 0.000000
													CHANNELS 3 Zrotation Yrotation Xrotation
													End Site
													{
														OFFSET 0.000000 0.000000 0.000000
													}
												}
											}
										}
									}
									JOINT RightHandRing1
									{
										OFFSET 0.086752 8.921708 -2.267442
										CHANNELS 3 Zrotation Yrotation Xrotation
										JOINT RightHandRing2
										{
											OFFSET 0.000000 4.061090 -0.000000
											CHANNELS 3 Zrotation Yrotation Xrotation
											JOINT RightHandRing3
											{
												OFFSET -0.000000 3.654981 0.000000
												CHANNELS 3 Zrotation Yrotation Xrotation
												JOINT RightHandRing4
												{
													OFFSET -0.000000 2.741236 0.000000
													CHANNELS 3 Zrotation Yrotation Xrotation
													End Site
													{
														OFFSET 0.000000 0.000000 0.000000
													}
												}
											}
										}
									}
									JOINT RightHandPinky1
									{
										OFFSET -0.173504 7.976997 -4.467199
										CHANNELS 3 Zrotation Yrotation Xrotation
										JOINT RightHandPinky2
										{
											OFFSET -0.000000 3.350399 0.000000
											CHANNELS 3 Zrotation Yrotation Xrotation
											JOINT RightHandPinky3
											{
												OFFSET 0.000000 2.842763 0.000000
												CHANNELS 3 Zrotation Yrotation Xrotation
												JOINT RightHandPinky4
												{
													OFFSET 0.000000 2.639709 0.000000
													CHANNELS 3 Zrotation Yrotation Xrotation
													End Site
													{
														OFFSET 0.000000 0.000000 0.000000
													}
												}
											}
										}
									}
									JOINT RightForeArmEnd
									{
										OFFSET 0.000000 0.000000 0.000000
										CHANNELS 3 Zrotation Yrotation Xrotation
										End Site
										{
											OFFSET 0.000000 0.000000 0.000000
										}
									}
								}
								JOINT RightArmEnd
								{
									OFFSET 0.000000 0.000000 0.000000
									CHANNELS 3 Zrotation Yrotation Xrotation
									End Site
									{
										OFFSET 0.000000 0.000000 0.000000
									}
								}
							}
						}
					}
					JOINT LeftShoulder
					{
						OFFSET 2.625389 11.175210 0.000000
						CHANNELS 3 Zrotation Yrotation Xrotation
						JOINT LeftArm
						{
							OFFSET -0.000000 10.813635 -0.000000
							CHANNELS 3 Zrotation Yrotation Xrotation
							JOINT LeftForeArm
							{
								OFFSET -0.000000 28.724781 -0.000000
								CHANNELS 3 Zrotation Yrotation Xrotation
								JOINT LeftHand
								{
									OFFSET 0.644384 25.716167 -0.328871
									CHANNELS 3 Zrotation Yrotation Xrotation
									JOINT LeftHandThumb1
									{
										OFFSET 2.867323 3.959563 2.944291
										CHANNELS 3 Zrotation Yrotation Xrotation
										JOINT LeftHandThumb2
										{
											OFFSET 0.000000 3.350399 0.000000
											CHANNELS 3 Zrotation Yrotation Xrotation
											JOINT LeftHandThumb3
											{
												OFFSET -0.000000 3.756509 -0.000000
												CHANNELS 3 Zrotation Yrotation Xrotation
												JOINT LeftHandThumb4
												{
													OFFSET 0.000000 3.100000 0.000000
													CHANNELS 3 Zrotation Yrotation Xrotation
													End Site
													{
														OFFSET 0.000000 0.000000 0.000000
													}
												}
											}
										}
									}
									JOINT LeftHandIndex1
									{
										OFFSET 0.086752 10.030893 2.345280
										CHANNELS 3 Zrotation Yrotation Xrotation
										JOINT LeftHandIndex2
										{
											OFFSET 0.000000 4.061090 0.000000
											CHANNELS 3 Zrotation Yrotation Xrotation
											JOINT LeftHandIndex3
											{
												OFFSET -0.000000 3.248873 -0.000000
												CHANNELS 3 Zrotation Yrotation Xrotation
												JOINT LeftHandIndex4
												{
													OFFSET 0.000000 2.639709 0.000000
													CHANNELS 3 Zrotation Yrotation Xrotation
													End Site
													{
														OFFSET 0.000000 0.000000 0.000000
													}
												}
											}
										}
									}
									JOINT LeftHandMiddle1
									{
										OFFSET -0.104102 9.502952 0.006768
										CHANNELS 3 Zrotation Yrotation Xrotation
										JOINT LeftHandMiddle2
										{
											OFFSET -0.000000 4.568727 -0.000000
											CHANNELS 3 Zrotation Yrotation Xrotation
											JOINT LeftHandMiddle3
											{
												OFFSET -0.000000 3.654981 -0.000000
												CHANNELS 3 Zrotation Yrotation Xrotation
												JOINT LeftHandMiddle4
												{
													OFFSET 0.000000 2.741236 0.000000
													CHANNELS 3 Zrotation Yrotation Xrotation
													End Site
													{
														OFFSET 0.000000 0.000000 0.000000
													}
												}
											}
										}
									}
									JOINT LeftHandRing1
									{
										OFFSET -0.086752 8.921708 -2.267442
										CHANNELS 3 Zrotation Yrotation Xrotation
										JOINT LeftHandRing2
										{
											OFFSET 0.000000 4.061090 0.000000
											CHANNELS 3 Zrotation Yrotation Xrotation
											JOINT LeftHandRing3
											{
												OFFSET 0.000000 3.654981 -0.000000
												CHANNELS 3 Zrotation Yrotation Xrotation
												JOINT LeftHandRing4
												{
													OFFSET -0.000000 2.741236 -0.000000
													CHANNELS 3 Zrotation Yrotation Xrotation
													End Site
													{
														OFFSET 0.000000 0.000000 0.000000
													}
												}
											}
										}
									}
									JOINT LeftHandPinky1
									{
										OFFSET 0.173504 7.976997 -4.467199
										CHANNELS 3 Zrotation Yrotation Xrotation
										JOINT LeftHandPinky2
										{
											OFFSET -0.000000 3.350399 -0.000000
											CHANNELS 3 Zrotation Yrotation Xrotation
											JOINT LeftHandPinky3
											{
												OFFSET 0.000000 2.842763 -0.000000
												CHANNELS 3 Zrotation Yrotation Xrotation
												JOINT LeftHandPinky4
												{
													OFFSET -0.000000 2.639709 -0.000000
													CHANNELS 3 Zrotation Yrotation Xrotation
													End Site
													{
														OFFSET 0.000000 0.000000 0.000000
													}
												}
											}
										}
									}
									JOINT LeftForeArmEnd
									{
										OFFSET 0.000000 0.000000 0.000000
										CHANNELS 3 Zrotation Yrotation Xrotation
										End Site
										{
											OFFSET 0.000000 0.000000 0.000000
										}
									}
								}
								JOINT LeftArmEnd
								{
									OFFSET 0.000000 0.000000 0.000000
									CHANNELS 3 Zrotation Yrotation Xrotation
									End Site
									{
										OFFSET 0.000000 0.000000 0.000000
									}
								}
							}
						}
					}
				}
			}
		}
	}
	JOINT RightUpLeg
	{
		OFFSET -11.289943 -0.000000 0.000000
		CHANNELS 3 Zrotation Yrotation Xrotation
		JOINT RightLeg
		{
			OFFSET 0.000000 -38.200325 -0.000000
			CHANNELS 3 Zrotation Yrotation Xrotation
			JOINT RightFoot
			{
				OFFSET -0.000000 -39.900856 0.000000
				CHANNELS 3 Zrotation Yrotation Xrotation
				JOINT RightToeBase
				{
					OFFSET 0.000000 0.000000 15.261641
					CHANNELS 3 Zrotation Yrotation Xrotation
					JOINT RightToeBaseEnd
					{
						OFFSET 0.000000 0.000000 7.370709
						CHANNELS 3 Zrotation Yrotation Xrotation
						End Site
						{
							OFFSET 0.000000 0.000000 0.000000
						}
					}
				}
				JOINT RightLegEnd
				{
					OFFSET 0.000000 0.000000 0.000000
					CHANNELS 3 Zrotation Yrotation Xrotation
					End Site
					{
						OFFSET 0.000000 0.000000 0.000000
					}
				}
			}
			JOINT RightUpLegEnd
			{
				OFFSET 0.000000 0.000000 0.000000
				CHANNELS 3 Zrotation Yrotation Xrotation
				End Site
				{
					OFFSET 0.000000 0.000000 0.000000
				}
			}
		}
	}
	JOINT LeftUpLeg
	{
		OFFSET 11.315661 0.000000 0.000000
		CHANNELS 3 Zrotation Yrotation Xrotation
		JOINT LeftLeg
		{
			OFFSET 0.000000 -38.200325 -0.000000
			CHANNELS 3 Zrotation Yrotation Xrotation
			JOINT LeftFoot
			{
				OFFSET 0.000000 -39.900856 -0.000000
				CHANNELS 3 Zrotation Yrotation Xrotation
				JOINT LeftToeBase
				{
					OFFSET 0.000000 -0.000000 15.261641
					CHANNELS 3 Zrotation Yrotation Xrotation
					JOINT LeftToeBaseEnd
					{
						OFFSET -0.000000 0.000000 7.539996
						CHANNELS 3 Zrotation Yrotation Xrotation
						End Site
						{
							OFFSET 0.000000 0.000000 0.000000
						}
					}
				}
				JOINT LeftLegEnd
				{
					OFFSET 0.000000 0.000000 0.000000
					CHANNELS 3 Zrotation Yrotation Xrotation
					End Site
					{
						OFFSET 0.000000 0.000000 0.000000
					}
				}
			}
			JOINT LeftUpLegEnd
			{
				OFFSET 0.000000 0.000000 0.000000
				CHANNELS 3 Zrotation Yrotation Xrotation
				End Site
				{
					OFFSET 0.000000 0.000000 0.000000
				}
			}
		}
	}
}
MOTION
Frames: 5
Frame Time: 0.016667
-0.066283 88.859909 3.106752 -0.554998 -0.063200 -6.496325 0.035903 -0.002268 5.888138 1.007702 -0.066753 0.859935 -0.482675 2.416700 3.828048 -0.160674 0.780135 1.924824 -2.324279 -0.847468 5.016633 -0.365139 -2.116586 -3.221972 0.720381 0.853138 -18.220909 0.000000 0.000000 0.000000 92.020271 -0.208433 5.546823 69.638977 -19.089216 -1.147147 0.059477 8.331356 28.544134 2.918324 25.791067 -8.931848 11.217805 -1.887472 39.615406 0.000000 0.000000 -27.315002 0.000000 0.000000 -18.968748 0.000000 0.000000 0.000000 13.213602 16.646936 -12.039722 11.238620 -0.665555 -3.398387 11.238004 0.315584 -3.203499 0.000000 0.000000 0.000000 14.610597 6.862490 -11.429158 11.135071 -0.860474 -1.356066 11.133999 0.111766 -1.162957 0.000000 0.000000 0.000000 19.862411 -8.846701 -10.677217 12.650033 1.760184 1.978157 12.644374 -0.177743 1.540332 0.000000 0.000000 0.000000 23.790291 -25.600758 -10.773308 12.395708 3.368127 5.825091 12.374576 -0.538114 4.967071 0.000000 0.000000 0.000000 0.000000 0.000000 0.000000 0.000000 0.000000 0.000000 -90.685371 0.125338 9.277699 -68.205345 33.746468 -2.114506 -0.906679 -12.804414 36.500160 -5.004631 -13.813062 -13.796777 -10.637670 1.840801 39.870987 0.000000 0.000000 -25.919998 0.000000 0.000000 -18.000004 0.000000 0.000000 0.000000 -15.727524 16.759449 -9.934354 -8.634541 -0.781970 2.617436 -8.634687 0.185794 2.467350 0.000000 0.000000 0.000000 -12.632174 6.870213 -11.103483 -7.858750 -0.942948 0.960031 -7.861093 -0.138773 0.818618 0.000000 0.000000 0.000000 -9.446996 -8.823497 -11.456291 -7.804728 1.917102 -1.226388 -7.800338 -0.064224 -0.954850 0.000000 0.000000 0.000000 -4.422287 -25.333719 -13.915033 -6.810095 3.806906 -3.213968 -6.795249 -0.160380 -2.740026 0.000000 0.000000 0.000000 0.000000 0.000000 0.000000 0.000000 0.000000 0.000000 1.904249 6.541767 7.475135 -0.037531 -0.408927 7.546108 -4.730400 1.738853 18.019159 -0.347465 0.340706 -20.620296 0.000000 0.000000 0.000000 0.000000 0.000000 0.000000 0.000000 0.000000 0.000000 1.163178 10.511868 11.895180 0.051614 0.626121 3.761402 1.290193 7.867616 18.489267 0.739732 -0.851381 -19.069050 0.000000 0.000000 0.000000 0.000000 0.000000 0.000000 0.000000 0.000000 0.000000 
-0.058637 88.758446 2.948983 0.099797 0.149134 -7.974334 -1.197707 0.261751 7.022789 1.287975 -0.175712 2.437204 -0.745989 1.942918 3.277036 1.059838 0.270522 2.909973 -2.946275 -0.764742 3.698147 -0.442294 -1.817403 -3.652076 0.336000 0.581065 -18.033684 0.000000 0.000000 0.000000 90.364471 -0.100969 6.545636 69.195793 -19.525337 0.686108 0.194698 9.244254 28.344204 3.234281 24.788374 -8.180197 10.979401 -1.868245 39.724724 -0.000011 0.000017 -26.847561 -0.000007 0.000035 -18.608612 0.000002 -0.000006 -0.000008 13.227981 16.752110 -10.269363 10.557231 -0.652809 -2.882228 10.634526 0.315399 -2.697254 -0.000021 0.000014 -0.000025 14.206413 6.933603 -10.748967 10.512851 -0.857355 -1.157668 10.541989 0.114884 -0.987364 0.000021 -0.000010 0.000010 19.137239 -8.944327 -10.835732 11.923192 1.782006 1.654716 11.857347 -0.162801 1.285497 -0.000032 -0.000122 0.000015 23.777140 -25.358196 -12.443166 11.867180 3.356413 4.921053 11.664826 -0.518525 4.209367 0.000392 -0.000004 0.000006 0.000000 0.000000 0.000000 0.000000 0.000000 0.000000 -90.754601 0.259271 9.096335 -67.316422 33.483536 -1.967276 -1.241965 -14.231272 37.097229 -6.051987 -12.790532 -13.237391 -10.470792 1.812342 39.950676 -0.000000 0.000014 -25.488995 -0.000030 -0.000027 -17.726772 -0.000550 -0.000001 0.000277 -15.324338 16.894411 -9.864840 -8.695791 -0.699724 2.734644 -8.927883 0.264771 2.581858 -0.000003 0.000765 0.000001 -12.410608 6.992961 -10.598816 -8.281414 -0.886292 1.061215 -8.018546 0.090469 0.910838 0.000025 -0.000042 -0.000069 -8.716750 -8.931563 -10.551894 -7.779914 1.842265 -1.484308 -7.619769 -0.110109 -1.134290 0.000120 0.000007 0.000000 -3.413519 -25.358364 -13.043694 -6.395610 3.539080 -3.966394 -6.445629 -0.332058 -3.433336 0.000117 -0.000012 -0.000031 0.000000 0.000000 0.000000 0.000000 0.000000 0.000000 1.713205 5.944061 7.418718 -0.067082 -0.371491 9.544960 -4.591444 0.831342 17.360493 -0.348431 0.386825 -21.173550 0.000000 0.000000 0.000000 0.000000 0.000000 0.000000 0.000000 0.000000 0.000000 1.501778 9.513890 12.157492 0.042617 0.677806 5.676141 0.689715 9.164783 17.783634 0.737536 -0.849974 -19.321852 0.000000 0.000000 0.000000 0.000000 0.000000 0.000000 0.000000 0.000000 0.000000 
-0.073095 88.750160 2.919331 0.061053 0.170478 -8.054666 -1.195590 0.250387 7.089115 1.313997 -0.180966 2.431338 -0.798053 1.888418 3.305647 1.108660 0.221932 2.873888 -2.899919 -0.760477 3.802210 -0.426747 -1.798519 -3.518252 0.294793 0.571371 -18.021099 0.000000 0.000000 0.000000 90.439354 -0.075450 6.494780 69.070099 -19.651247 0.861181 0.155849 9.098050 28.256290 3.320235 24.657734 -8.361429 10.964594 -1.867533 39.733124 -0.000006 0.000032 -26.808247 -0.000007 0.000032 -18.588390 0.000013 -0.000000 -0.000019 13.174567 16.746363 -10.162025 10.493826 -0.663995 -2.851658 10.572002 0.305546 -2.668962 -0.000002 0.000026 -0.000023 14.134988 6.931186 -10.656292 10.443786 -0.861656 -1.144242 10.463604 0.111135 -0.976300 0.000019 -0.000034 0.000002 19.041964 -8.938288 -10.831937 11.844698 1.789536 1.637254 11.765587 -0.156923 1.271044 -0.000036 -0.000123 0.000002 23.697134 -25.346449 -12.514879 11.793818 3.379447 4.872213 11.588737 -0.501644 4.167223 0.000362 0.000007 -0.000002 0.000000 0.000000 0.000000 0.000000 0.000000 0.000000 -90.735840 0.204383 9.200774 -67.392380 33.464676 -1.877338 -1.233123 -14.165384 36.997093 -5.835219 -12.666241 -13.559170 -10.487022 1.808470 39.949524 0.000010 0.000019 -25.514166 -0.000029 -0.000013 -17.741205 -0.000654 0.000007 0.000304 -15.323626 16.906391 -9.897808 -8.694984 -0.705715 2.724832 -8.916609 0.259790 2.570542 0.000012 0.000719 0.000008 -12.389907 6.999111 -10.645465 -8.264890 -0.888971 1.053383 -8.007927 0.088448 0.905537 0.000044 -0.000034 -0.000096 -8.720683 -8.934827 -10.604565 -7.776441 1.846703 -1.476372 -7.622235 -0.107581 -1.128905 0.000232 0.000015 0.000004 -3.474532 -25.389814 -13.108565 -6.445952 3.551164 -3.941430 -6.498693 -0.323479 -3.416655 0.000176 0.000007 -0.000049 0.000000 0.000000 0.000000 0.000000 0.000000 0.000000 1.779082 5.875268 7.419543 -0.065060 -0.363052 9.654421 -4.623021 0.804330 17.334248 -0.333104 0.392114 -21.141401 0.000000 0.000000 0.000000 0.000000 0.000000 0.000000 0.000000 0.000000 0.000000 1.528546 9.521405 12.259490 0.040407 0.673507 5.554572 0.675759 8.967468 17.783966 0.747553 -0.862289 -19.301468 0.000000 0.000000 0.000000 0.000000 0.000000 0.000000 0.000000 0.000000 0.000000 
-0.087508 88.750648 2.895046 0.042127 0.186404 -8.132311 -1.201888 0.249656 7.160652 1.333019 -0.180437 2.424058 -0.832642 1.859993 3.359723 1.154693 0.203358 2.813690 -2.894963 -0.723006 3.841950 -0.415239 -1.759189 -3.445822 0.262127 0.562150 -18.016104 0.000000 0.000000 0.000000 90.504478 -0.057217 6.477559 68.981255 -19.681988 0.960213 0.136394 9.054316 28.069782 3.361607 24.507210 -8.495677 10.956109 -1.867148 39.737366 -0.000004 0.000032 -26.780598 -0.000009 0.000034 -18.575672 0.000012 -0.000001 -0.000019 13.108799 16.749758 -10.103505 10.445200 -0.671656 -2.824457 10.520478 0.298782 -2.644098 -0.000001 0.000027 -0.000024 14.054435 6.931068 -10.596524 10.380366 -0.864631 -1.133147 10.400351 0.108633 -0.966704 0.000019 -0.000041 0.000005 18.949141 -8.936560 -10.821147 11.779231 1.794201 1.624326 11.694814 -0.153342 1.260288 -0.000036 -0.000060 0.000003 23.611137 -25.342161 -12.549975 11.735313 3.392920 4.842218 11.526926 -0.492444 4.140030 0.000361 0.000006 -0.000011 0.000000 0.000000 0.000000 0.000000 0.000000 0.000000 -90.716423 0.172878 9.272374 -67.498627 33.429302 -1.905730 -1.221728 -14.183737 37.000557 -5.724161 -12.427649 -13.611831 -10.508406 1.808679 39.942020 0.000009 0.000019 -25.556028 -0.000034 -0.000013 -17.770760 -0.000705 0.000006 0.000348 -15.369535 16.901365 -9.859158 -8.695664 -0.709768 2.715832 -8.914636 0.257018 2.558265 0.000010 0.000683 0.000008 -12.429365 6.998650 -10.633229 -8.258351 -0.890750 1.047197 -8.001507 0.087009 0.900644 0.000083 -0.000035 -0.000116 -8.775714 -8.932978 -10.623610 -7.787899 1.849384 -1.469419 -7.635003 -0.106019 -1.123407 0.000230 0.000015 0.000004 -3.563917 -25.399973 -13.150179 -6.493480 3.558486 -3.922511 -6.541771 -0.318719 -3.401061 0.000183 0.000006 -0.000050 0.000000 0.000000 0.000000 0.000000 0.000000 0.000000 1.793153 5.839150 7.428507 -0.063734 -0.356521 9.729740 -4.648626 0.815621 17.341373 -0.321376 0.393640 -21.135490 0.000000 0.000000 0.000000 0.000000 0.000000 0.000000 0.000000 0.000000 0.000000 1.537471 9.536245 12.324760 0.037522 0.666120 5.498392 0.679377 8.890864 17.793745 0.754587 -0.866593 -19.288988 0.000000 0.000000 0.000000 0.000000 0.000000 0.000000 0.000000 0.000000 0.000000 
-0.093086 88.756744 2.876505 0.046130 0.203704 -8.212441 -1.208642 0.254727 7.215556 1.338194 -0.175164 2.422605 -0.855849 1.848366 3.417498 1.176774 0.201255 2.770412 -2.896030 -0.666462 3.864410 -0.404284 -1.700712 -3.399165 0.237626 0.560925 -18.025373 0.000000 0.000000 0.000000 90.552689 -0.036183 6.487455 68.973305 -19.672440 0.975481 0.123182 9.062197 27.921772 3.387374 24.421232 -8.572062 10.948440 -1.867786 39.739651 -0.000003 0.000033 -26.754816 -0.000009 0.000035 -18.562443 0.000012 -0.000001 -0.000018 13.063970 16.748676 -10.041739 10.398223 -0.677838 -2.803824 10.468751 0.293125 -2.625835 -0.000002 0.000027 -0.000024 13.990379 6.928772 -10.540260 10.320889 -0.867258 -1.124506 10.342806 0.106541 -0.959169 0.000019 -0.000043 0.000007 18.861853 -8.934033 -10.810891 11.712185 1.798042 1.614186 11.624180 -0.150363 1.251998 -0.000035 0.000031 0.000004 23.514534 -25.339685 -12.586470 11.666356 3.404438 4.818358 11.457153 -0.484486 4.119638 0.000378 0.000006 -0.000016 0.000000 0.000000 0.000000 0.000000 0.000000 0.000000 -90.695900 0.155030 9.313774 -67.598892 33.416748 -1.917246 -1.201082 -14.218428 36.987049 -5.598980 -12.230158 -13.634726 -10.528039 1.810790 39.933002 0.000008 0.000020 -25.592607 -0.000039 -0.000014 -17.797386 -0.000696 0.000005 0.000336 -15.427105 16.885883 -9.788972 -8.697032 -0.712879 2.709301 -8.913749 0.254639 2.548745 0.000008 0.000656 0.000009 -12.494939 6.993132 -10.589641 -8.253971 -0.892075 1.042412 -7.995122 0.085784 0.896762 0.000088 -0.000035 -0.000127 -8.862422 -8.924761 -10.610910 -7.793651 1.851472 -1.463061 -7.640097 -0.104573 -1.118497 0.000199 0.000015 0.000004 -3.672210 -25.389250 -13.160578 -6.516512 3.564236 -3.904993 -6.561996 -0.314468 -3.386263 0.000170 0.000005 -0.000051 0.000000 0.000000 0.000000 0.000000 0.000000 0.000000 1.781890 5.806553 7.459430 -0.062936 -0.352246 9.788749 -4.670609 0.834871 17.336277 -0.315969 0.392760 -21.125126 0.000000 0.000000 0.000000 0.000000 0.000000 0.000000 0.000000 0.000000 0.000000 1.537477 9.566434 12.390955 0.034633 0.657376 5.467705 0.683559 8.871017 17.814192 0.758973 -0.867372 -19.278042 0.000000 0.000000 0.000000 0.000000 0.000000 0.000000 0.000000 0.000000 0.000000 
